<?xml version="1.0" encoding="utf-8"?>
<!-- Generator: Adobe Illustrator 18.0.0, SVG Export Plug-In . SVG Version: 6.00 Build 0)  -->
<!DOCTYPE svg PUBLIC "-//W3C//DTD SVG 1.1//EN" "http://www.w3.org/Graphics/SVG/1.1/DTD/svg11.dtd">
<svg version="1.1" id="Layer_1" xmlns="http://www.w3.org/2000/svg" xmlns:xlink="http://www.w3.org/1999/xlink" x="0px" y="0px"
	 viewBox="0 0 250 100" enable-background="new 0 0 250 100" xml:space="preserve">
<g>
	<g>
		<path fill="#010101" d="M210,80.4c-2-1.8-7.8-1.3-7.8-1.3l-23.9-1.5c-4.6-1.3-7.2-0.9-7.2-0.7c0,0.2-103.9-0.2-103.9-0.2
			c-4.8-2.6-11.2,0.9-11.2,0.9l-26.3-3.8l-3.4,1.4c0,0-3.8-2.5-4.4-2.6c-0.6-0.1-1.9-9.2-2-8.8c-0.1,0.4,8.9-17,8.9-17l13.8-7.1
			l18.7,3l9.2,18.8l14,9.6l85.2,0.9l-2.3-16.2l21.8-14.1l23,10.7l5.3,19.6l-5.5,7.4L210,80.4z"/>
		<path fill="#BBE5F7" d="M188,39.7c-18.1-10.2-43.1-19.9-43.1-19.9s-3.7,1.6-4,1.6s35.5,16.9,35.5,16.9L188,39.7z"/>
		<g opacity="0.5">
			<path fill="#FFFFFF" d="M188,39.7l-8.8-1.1l-2.6-4.8C180.5,35.7,184.4,37.7,188,39.7z"/>
			<path fill="#FFFFFF" d="M143.4,20.4c0.8-0.3,1.5-0.6,1.5-0.6s3.1,1.2,7.8,3.2l2.9,5.5c-4.1-1.9-7.9-3.7-10.6-5L143.4,20.4z"/>
			<path fill="#FFFFFF" d="M159.3,25.8c3.2,1.4,6.8,3,10.5,4.7l3.3,6.2c-2.6-1.2-6.5-3.1-10.6-5L159.3,25.8z"/>
		</g>
		<g>
			<path fill="#5B5A5B" d="M228.7,71.5c2.2-2.4,4.6-1.6,6.2-3.1c1.6-1.6,1.5-2.2,2.1-2.1c0.6,0.1,3.5,1.7,3,5.2
				c-0.5,3.5-0.2,6.1-6.2,6.5c-6,0.4-23.3,2.6-23.7,2.4c1.5-1.3,2-4.1,2-4.1l11.7-4L228.7,71.5z"/>
			<path fill="#5B5A5B" d="M172.2,76.3c0,2.3,1.2,4.1,1.9,4.4c-38.2-2.3-93.3-2.9-107.8-2c0.3-0.8,0.6-2.7,0.6-2.7l7.4-2.8
				L172.2,76.3z"/>
			<path fill="#5B5A5B" d="M12.5,63.3c-2.1,0.2-3,1-3,1c0.9,5.6,3.3,9,8.5,10.3c5.2,1.3,11.2,2.6,13,2.1c1.8-0.5-1.4-2.7-1.4-2.7
				c-2.2,0.1-5.6-1.4-5.6-1.4l-4.6-5.7L12.5,63.3z"/>
		</g>
		<g>
			<path fill="#303030" d="M83.4,22.2c2.5-0.8,4-2.1,5.7-2.9c1.7-0.8,28.2-4.7,39.6-3.2c11.4,1.5,16.1,3.8,16.1,3.8
				c-0.4,1-2.2,2.4-2.2,2.4l6.1,1c17.4,8.7,29.5,15.2,41.5,16.5l-14.1,2l-21.4-13.5l-15.4-6.5l-22.1-1.9L83.4,22.2z"/>
			<path fill="#303030" d="M239.7,66.2c-0.3,1.6-2.9,4.3-2.9,4.3L230,72l-10.2-15.6L239.7,66.2z"/>
		</g>
		<path fill="#303030" d="M14.4,61.7c-2.7,0.1-3.7-0.8-4.1-1.7c-0.7-4.1-0.6-8-0.2-9.3c0.4-1.4,0.7-1.5,0.7-1.5
			c-0.9-0.5-0.7-1.2-0.6-2.4c0.7-0.6,1.8-1.1,1.8-1.1c1.3-4.1,1.1-7.1,0.5-8.5c0.7-0.4,1.1-1,1.6-1.6c0.9-1,3-0.8,4.5-0.5l2.7-0.2
			l7.5,5c0,0-1.8,2.3-1.8,2.3c0,0-15.1,7.9-15.1,7.9L14.4,61.7z"/>
		<g>
			<path fill="#4D4C4C" d="M17.7,68.2c-3.2,0.1-4.9,0.1-6.6-2.3c-1.7-2.4-1.3-4.1-0.5-4.6c0.8-0.4,2.7-0.9,5.1,0
				C18.1,62.2,17.7,68.2,17.7,68.2z"/>
			<path fill="#303030" d="M12.4,64.1c-0.8-2.3-1-3-1.6-2.4c-0.6,0.5-0.5,2.3,0.6,3.9c1.1,1.6,1.9,1.7,1.9,1.7
				C12.9,65.4,12.4,64.1,12.4,64.1z"/>
		</g>
	</g>
	<g>
		<g class="wheel">
			<ellipse fill="#151515" cx="192.1" cy="67" rx="17.7" ry="19.4"/>
			<ellipse fill="#303030" cx="192.1" cy="67" rx="16.8" ry="18.5"/>
			<ellipse fill="#676767" cx="192.1" cy="67" rx="14.3" ry="15.7"/>
			<ellipse fill="#5B5A5B" cx="192.1" cy="67" rx="13.3" ry="14.6"/>
			<ellipse fill="#303030" cx="192.1" cy="67" rx="11.7" ry="12.8"/>
			<ellipse fill="#5B5A5B" cx="192.1" cy="67" rx="10.2" ry="11.2"/>
			<path fill="#676767" d="M178.3,64.4c2,1.2,5.9,3.6,8.5,4.6c-1.5,2.5-3.4,6.9-4.4,9.2c0.9,0.9,1.9,1.8,3,2.4
				c1.7-1.7,4.9-5,6.6-7.4c1.7,2.4,4.9,5.7,6.6,7.4c1.1-0.7,2.1-1.5,3-2.4c-0.9-2.3-2.8-6.7-4.4-9.2c2.6-1,6.5-3.4,8.5-4.6
				c-0.2-1.4-0.6-2.7-1.2-3.9c-2.2,0.3-6.7,0.9-9.3,1.7c-0.1-3-0.9-7.8-1.4-10.3c-0.6-0.1-1.2-0.1-1.9-0.1s-1.3,0.1-1.9,0.1
				c-0.5,2.4-1.3,7.3-1.4,10.3c-2.6-0.8-7.1-1.5-9.3-1.7C179,61.7,178.6,63,178.3,64.4z M196.3,66.8c-0.5,0.1-0.8,0.1-1.1,0.1
				c-0.3-0.2-0.7-0.3-1-0.4c0-0.1,0-0.1-0.1-0.2c0-0.1,0-0.1,0-0.2c0.2-0.3,0.4-0.6,0.6-1c0.2-0.2,0.5-0.4,1-0.6
				c1.9-0.7,5.3-1.2,7.7-1.5C201.2,64.4,198.2,66.1,196.3,66.8z M193.2,70.4c0.1-0.4,0.1-0.8,0-1.2c0,0,0.1-0.1,0.1-0.1
				c0,0,0.1-0.1,0.1-0.1c0.3,0.2,0.7,0.3,1,0.3c0.2,0.2,0.5,0.4,0.8,0.8c1.2,1.8,2.7,5.1,3.7,7.6c-1.8-1.8-4.2-4.4-5.4-6.2
				C193.4,71,193.3,70.7,193.2,70.4z M191,62.6c0-2.2,0.6-5.9,1.1-8.5c0.5,2.6,1,6.3,1.1,8.5c-0.1,0.5-0.2,0.9-0.2,1.2
				c-0.3,0.3-0.5,0.6-0.7,0.9c-0.1,0-0.1,0-0.2,0s-0.1,0-0.2,0c-0.2-0.3-0.4-0.6-0.7-0.9C191.2,63.5,191.1,63.1,191,62.6z
				 M188.8,70.1c0.3-0.4,0.6-0.6,0.8-0.8c0.4-0.1,0.7-0.2,1-0.3c0,0,0.1,0.1,0.1,0.1c0,0,0.1,0.1,0.1,0.1c0,0.4,0,0.8,0,1.2
				c-0.1,0.3-0.2,0.7-0.4,1.1c-1.2,1.8-3.6,4.4-5.4,6.2C186.1,75.3,187.6,71.9,188.8,70.1z M180.8,63.1c2.4,0.3,5.8,0.9,7.7,1.5
				c0.4,0.2,0.7,0.4,1,0.6c0.2,0.4,0.3,0.7,0.6,1c0,0.1,0,0.1,0,0.2c0,0.1,0,0.1-0.1,0.2c-0.3,0.1-0.7,0.2-1,0.4
				c-0.3,0-0.6,0-1.1-0.1C185.9,66.1,182.9,64.4,180.8,63.1z"/>
		</g>
		<g class="wheel">
			<ellipse fill="#151515" cx="46.1" cy="65.6" rx="19" ry="20.9"/>
			<ellipse fill="#303030" cx="46.1" cy="65.6" rx="18" ry="19.8"/>
			<ellipse fill="#676767" cx="46.1" cy="65.6" rx="15.3" ry="16.8"/>
			<ellipse fill="#5B5A5B" cx="46.1" cy="65.6" rx="14.2" ry="15.7"/>
			<ellipse fill="#303030" cx="46.1" cy="65.6" rx="12.5" ry="13.8"/>
			<ellipse fill="#5B5A5B" cx="46.1" cy="65.6" rx="10.9" ry="12"/>
			<path fill="#676767" d="M31.4,62.8c2.1,1.3,6.3,3.9,9.1,5c-1.6,2.7-3.7,7.5-4.7,9.9c1,1,2.1,1.9,3.2,2.6c1.8-1.8,5.3-5.4,7.1-8
				c1.8,2.6,5.3,6.2,7.1,8c1.2-0.7,2.3-1.6,3.2-2.6c-1-2.4-3-7.2-4.7-9.9c2.8-1.1,7-3.6,9.1-5c-0.2-1.5-0.7-2.9-1.2-4.2
				c-2.4,0.3-7.2,1-10,1.9c-0.1-3.2-1-8.4-1.5-11c-0.7-0.1-1.3-0.2-2-0.2c-0.7,0-1.4,0.1-2,0.2c-0.5,2.6-1.4,7.8-1.5,11
				c-2.8-0.9-7.6-1.6-10-1.9C32.1,59.9,31.6,61.3,31.4,62.8z M50.7,65.4c-0.5,0.1-0.9,0.1-1.2,0.1c-0.3-0.2-0.7-0.4-1.1-0.4
				c0-0.1,0-0.1-0.1-0.2c0-0.1,0-0.1,0-0.2c0.3-0.3,0.5-0.7,0.6-1c0.2-0.2,0.6-0.4,1-0.7c2.1-0.7,5.7-1.3,8.3-1.6
				C56,62.8,52.8,64.6,50.7,65.4z M47.4,69.2c0.1-0.4,0.1-0.8,0-1.2c0,0,0.1-0.1,0.1-0.1c0,0,0.1-0.1,0.1-0.1
				c0.3,0.2,0.7,0.3,1.1,0.3c0.2,0.2,0.5,0.5,0.9,0.9c1.3,1.9,2.9,5.5,4,8.1c-1.9-2-4.5-4.8-5.8-6.7C47.6,69.9,47.5,69.5,47.4,69.2z
				 M45,60.8c0-2.4,0.6-6.3,1.1-9.2c0.5,2.8,1.1,6.8,1.1,9.2c-0.1,0.5-0.2,1-0.3,1.3c-0.3,0.3-0.5,0.6-0.7,1c-0.1,0-0.1,0-0.2,0
				c-0.1,0-0.1,0-0.2,0c-0.2-0.4-0.4-0.7-0.7-1C45.2,61.8,45.1,61.4,45,60.8z M42.6,68.9c0.4-0.4,0.7-0.7,0.9-0.9
				c0.4-0.1,0.8-0.2,1.1-0.3c0,0,0.1,0.1,0.1,0.1c0,0,0.1,0.1,0.1,0.1c0,0.4,0,0.8,0,1.2c-0.1,0.3-0.2,0.7-0.5,1.2
				c-1.3,1.9-3.9,4.7-5.8,6.7C39.7,74.5,41.4,70.9,42.6,68.9z M34,61.4c2.6,0.4,6.2,0.9,8.3,1.6c0.4,0.3,0.8,0.5,1,0.7
				c0.2,0.4,0.4,0.7,0.6,1c0,0.1,0,0.1,0,0.2c0,0.1,0,0.1-0.1,0.2c-0.4,0.1-0.7,0.2-1.1,0.4c-0.3,0-0.7,0-1.2-0.1
				C39.5,64.6,36.3,62.8,34,61.4z"/>
		</g>
	</g>
	<g>
		<path fill="#F7901E" d="M212,76.3c3.4-16.6-4.3-28.6-17.7-30.5c-13.5-1.9-25.8,12.2-22.1,30.5l-52-0.6c-38.5-1-47.8-0.6-53.4,0.3
			c3.1-16.5-2.8-29.7-17.7-32.9C34.9,40,21.7,54.7,24.1,72.4c-9-4.3-10.7-5.6-12.9-20c-0.6-3.8,1.1-4.5,6.7-7.2c5.6-2.7,9-3.3,9.4-5
			c-2.1-2.5-5.8-5-8.7-5C30.5,30.8,41,30.8,41,30.8c8.2-2.2,13.4-2.4,16.2-2.4c51.4-13.9,74-14.9,100.4-1c6.9,3.6,16,8.5,21.1,11.8
			c21.9-1.5,34.5,3.1,45.9,9.1c11.4,6,10.4,6,16.4,10.6c0.3,4.1-1.4,7.4-1.4,7.4c-8.5-4.5-16.4-6.5-17.5-8.3
			c2.2,3.4,8.8,12.5,9,14.1c0.1,1.6-2,3.8-2,3.8C224.2,76.2,212,76.3,212,76.3z"/>
		<g>
			<path fill="#FCB418" d="M49.8,34.4l7.5-2.7c0,0,7.4,0.7,22.5,1.1c15.1,0.4,50,7.4,69.7,8.9c19.2,1.5,32.3-4,44.2,1.9
				c-1.8,0.2-3.5,1.1-5.2,1.4c-1.4,0.3-3,0.2-4.3,0.9c-0.4,0.2-0.8,0.5-1.2,0.8c-7.8-2.4-29-2.3-39.2,2c0,0-81.8,1.1-81.9,0.8
				c-0.1-0.3-13.4-7.8-13.4-7.8L49.8,34.4z"/>
			<path fill="#FCB418" d="M122,17.5c-21.6,1-45.9,6.8-55.2,10.9c0,0-3.7-0.5-9.6,0C85.9,20.6,105.6,16.8,122,17.5z"/>
		</g>
		<path fill="#F36E21" d="M239.7,66.2c-8.5-4.5-16.4-6.5-17.5-8.3c2.2,3.4,8.8,12.5,9,14.1c0.1,1.6-2,3.8-2,3.8
			c-5,0.4-17.2,0.5-17.2,0.5c3.4-16.6-4.3-28.6-17.7-30.5c-13.5-1.9-25.8,12.2-22.1,30.5l-52-0.6c-38.5-1-47.8-0.6-53.4,0.3
			c3.1-16.5-2.8-29.7-17.7-32.9C34.9,40,21.7,54.7,24.1,72.4c-9-4.3-10.7-5.6-12.9-20c-0.6-3.8,1.1-4.5,6.7-7.2c5.6-2.7,9-3.3,9.4-5
			c-2.1-2.5-5.8-5-8.7-5C30.5,30.8,41,30.8,41,30.8s14.7-2.4,38.8,2.1c-13.5-0.9-27,0.6-27.9,4.4c-0.9,3.8,7.3,9.5,7.8,4.5
			c0.5-5.1,26.3-3.6,42.1-0.7c15.8,2.9,8,11.2,8,11.2l50.5-2.4l14.2,2.5c0,0,5.3-9.2,17.4-9.4c12.1-0.3,19.2,9.3,22.5,16.2
			c3.4,6.9,8.8,2.3,6-4c0,0,0.1-0.5,1.6,1.7s17.8,4.2,19.1,1.9C241.4,62.9,239.7,66.2,239.7,66.2z"/>
		<g>
			<path fill="#F04A23" d="M231.2,72C231.2,72,231.2,72,231.2,72c0.2,1.6-2,3.8-2,3.8c-5,0.4-17.2,0.5-17.2,0.5
				c0.3-1.4,0.5-2.8,0.6-4.2C218.4,72.4,228.3,72.7,231.2,72z"/>
			<path fill="#F04A23" d="M11.2,52.4c0-0.3-0.1-0.6-0.1-0.8c1.9,6.9,9.3,8.3,14.2,0.9c5.4-8.1,12-13.4,22.5-12.5
				c10.5,0.9,17.1,7.1,21.3,17.4c4.2,10.2,14.7-3.6,15.2-9.7c0.7,2.1,7.3,12.2,19.3,18c11.7,5.7,42.8,5.4,68,5.7
				c0.1,1.6,0.3,3.3,0.6,5l-52-0.6c-38.5-1-47.8-0.6-53.4,0.3c3.1-16.5-2.8-29.7-17.7-32.9C34.9,40,21.7,54.7,24.1,72.4
				C15.1,68.1,13.4,66.7,11.2,52.4z"/>
		</g>
	</g>
	<path fill="#E92625" d="M102.5,31.7c0.1-0.1,0.2-0.1,0.2-0.1l26.6,1.3c1.4,0.1,33.9,3.1,38.4,5.5c3.9,2.1,8.8,7.3,11.6,12.2
		c-0.2,0.2-0.4,0.4-0.6,0.6c-2.7-4.7-7.5-9.9-11.3-12c-4.4-2.3-37.8-5.4-38.1-5.4l-26.4-1.3c-3.5,2.7-3.4,5.9-3.2,8.5
		c0.1,2.1,3.8,12.3,5.8,17.5c3.6,7.1,10.1,13,16.2,17.3l-1.4,0c-5.9-4.3-12-10-15.5-16.9c0,0,0,0,0,0c-0.2-0.6-5.7-15-5.9-17.8
		C98.7,38.3,98.6,34.7,102.5,31.7z"/>
	<g>
		<path fill="#F0524D" d="M13.1,42.3c0.2-4.1,1.9-7.3,6.5-5c4.6,2.3,4.6,3.8,1.5,5.2C18.1,44,13,47.1,13.1,42.3z"/>
		<path fill="#F0524D" d="M17.6,44.2c-1.5,0.6-3,0.9-3.8,0.2c-0.7-2.3,0.5-5.3,1.8-5.6c1.5-0.3,4.7,1,4.6,2.1
			c-0.1,1.1-4.8,2.4-4.8,3.2C15.4,44.5,16.3,44.5,17.6,44.2z"/>
	</g>
	<g>
		<path fill="#303030" d="M75.1,29.5c32.6-10.4,48.2-11.3,65.5-6.6c13,3.5,26.3,13.2,33.8,16.8c-20.9,1.4-35.3-0.3-49.7-2.4
			C110.4,35.1,75.1,29.5,75.1,29.5z"/>
		<path fill="#BBE5F7" d="M80.3,29.6c29.6-9.3,43.8-10.2,59.6-5.9c11.8,3.2,23.9,11.8,30.8,15c-19,1.2-32.1-0.3-45.2-2.2
			C112.4,34.6,80.3,29.6,80.3,29.6z"/>
		<g opacity="0.5">
			<path fill="#FFFFFF" d="M139.8,23.6c6.2,1.7,12.5,4.9,18.1,8l4,7.4c-7,0.2-13.2,0-18.9-0.5l-8.7-16.2
				C136.2,22.7,138,23.2,139.8,23.6z"/>
			<path fill="#FFFFFF" d="M108.3,22.4c2.6-0.4,5.1-0.7,7.4-0.9l7.9,14.8c-2.5-0.4-5.4-0.8-8.6-1.3L108.3,22.4z"/>
			<path fill="#FFFFFF" d="M120.6,21.2c2.8-0.1,5.5,0.1,8.1,0.3l8.9,16.5c-2.9-0.3-5.7-0.7-8.5-1L120.6,21.2z"/>
		</g>
		<path fill="#BBE5F7" d="M107.2,33.8c-13.2-2-26.9-4.2-26.9-4.2c9.9-3.1,18.1-5.3,25.2-6.6C106,26.4,106.6,30.4,107.2,33.8z"/>
		<g opacity="0.2">
			<path fill="#FFFFFF" d="M90.8,26.4c1.4-0.4,2.7-0.7,4-1.1l3.8,7.1c-1.7-0.3-3.4-0.5-5-0.8L90.8,26.4z"/>
			<path fill="#FFFFFF" d="M97.4,24.7c2.9-0.7,5.6-1.3,8.1-1.8c0.5,3.5,1.1,7.4,1.7,10.8c-1.8-0.3-3.6-0.6-5.4-0.8L97.4,24.7z"/>
			<path fill="#FFFFFF" d="M84.4,28.3c1.3-0.4,2.7-0.8,3.9-1.2l2.2,4c-1.9-0.3-3.5-0.6-5-0.8L84.4,28.3z"/>
		</g>
	</g>
	<path fill="#F04A23" d="M54,35.7c0-2.2,2.4-3.6,5.9-3.6c3.4,0,5.4,2.2,5.4,4.3c0,2.2-2.1,3.5-5.4,3.5C56.7,39.9,54,38,54,35.7z
		 M54.8,35.7c0,1.6,2.1,3.4,5.1,3.4c2.9,0,4.7-1,4.7-2.7c0-1.7-1.8-3.5-4.7-3.5C56.9,32.9,54.8,34,54.8,35.7z"/>
	<path fill="#303030" d="M152.7,32.9c0-3.1,2.5-3.8,5.6-3.2c3.1,0.6,5.8,3.7,4.8,5.4c-1,1.7-7.8,2.8-9.1,1.8
		C152.2,35.4,152.7,33.6,152.7,32.9z"/>
	<path fill="#F36E21" d="M159.1,36.2c3.1,0.6,7.2,5.7,7.2,6.6s-3.5,2.4-6.3,2c-0.7-4.8-1.4-7.8-2.8-7.9
		C155.7,36.7,159.1,36.2,159.1,36.2z"/>
	<g>
		<path fill="#BBE5F7" d="M233.8,55.2c-11.6-9.8-21.4-13.3-16.9-5.7c2.2,3.8,5.1,8.5,6.3,9.7c-1.9-3-0.5-4,1.9-4.3
			C227.5,54.6,229.9,54.7,233.8,55.2z"/>
		<path fill="#BBE5F7" d="M219,47.9c1-1.3,6.2,1.3,11,4.2c1.3,0.9,2.5,2,3.9,3.1c-1.8-0.2-3.2-0.4-4.5-0.4l-0.8-0.9
			C222.4,53.9,217.9,49.3,219,47.9z"/>
		<path fill="#303030" d="M225.1,54.9c-2.4,0.3-3.8,1.3-1.9,4.3c-1.2-1.1-4.1-5.9-6.3-9.7c-3.2-5.4,0.9-5.2,7.7-1.1
			c-3-1.3-5.7-2.2-6.5-1.9c-1.5,0.7,0.5,4.5,3.9,8.5c0.2-1,2.8-2.7,11.8,0.1C229.9,54.7,227.5,54.6,225.1,54.9z"/>
	</g>
	<g>
		<path fill="#303030" d="M178.5,51.4c-0.8,0.8-1.5,1.6-2.2,2.6c-6.1-2.8-14.8-2.8-22.2-3.2c-7.9-0.4-47.1,8.6-53.2,8.1
			c-6.2-0.4-14.9-8-16.7-16.3C91,37.7,141.8,44.5,178.5,51.4z"/>
		<path fill="#4D4C4C" d="M84.2,42.6c1.9-1.4,7.4-1.9,15-1.6c-0.2,6,3,12.9,5.8,17.6c-1.9,0.2-3.3,0.4-4.1,0.3
			C94.8,58.5,86,50.9,84.2,42.6z"/>
	</g>
	<path fill="#303030" d="M82.4,32.8c6.4,0.4,19.8,2.6,19.8,2.6c0-2.2-3.5-2.2-3.5-2.2S86.4,32.4,82.4,32.8z"/>
</g>
</svg>
